<svg height="512pt" viewBox="0 -76 512 512" width="512pt" xmlns="http://www.w3.org/2000/svg"><path d="m31 285c0 8.285156 6.714844 15 15 15h421c8.285156 0 15-6.714844 15-15 0-110.160156-79.933594-202.074219-185.085938-221.296875 2.613282-5.699219 4.085938-12.03125 4.085938-18.703125 0-24.8125-20.1875-45-45-45s-45 20.1875-45 45c0 6.671875 1.472656 13.003906 4.085938 18.703125-103.992188 19-184.085938 110.203125-184.085938 221.296875zm210-240c0-8.269531 6.730469-15 15-15s15 6.730469 15 15-6.730469 15-15 15-15-6.730469-15-15zm15 45c103.003906 0 187.703125 79.457031 195.425781 180h-389.855469c7.6875-100.542969 91.953126-180 194.429688-180zm0 0"/><path d="m497 330h-482c-8.285156 0-15 6.714844-15 15s6.714844 15 15 15h482c8.285156 0 15-6.714844 15-15s-6.714844-15-15-15zm0 0"/></svg>